<svg width="964" height="335" viewBox="0 0 964 335" fill="none" xmlns="http://www.w3.org/2000/svg">
<path d="M480.986 181.199H507.371V303H480.986V181.199Z" fill="#3498FF"/>
<path d="M519.599 273.355L542.766 264.333C545.34 269.059 553.578 278.511 565.934 278.511C578.29 278.511 583.524 271.317 584.597 267.721V265.622C584.597 262.4 579.577 255.697 562.073 252.088C549.416 250.155 524.104 240.102 524.104 215.355C524.104 190.608 546.842 182.273 558.211 181.199C569.152 179.481 593.864 181.586 605.19 203.755L582.666 214.066C581.164 210.2 574.815 202.724 561.429 203.755C548.043 204.786 548.558 215.355 548.558 216C548.558 216.644 547.915 225.022 581.379 232.111C590.603 234.688 609.051 244.742 609.051 264.333C609.051 283.924 596.18 295.267 589.745 298.489C586.313 299.993 576.745 303 565.934 303C552.419 303 528.608 297.844 519.599 273.355Z" fill="#3498FF"/>
<path d="M624.496 181.199H650.882V303H624.496V181.199Z" fill="#3498FF"/>
<path d="M663.752 181.199H748.7V207.622H717.81V303H692.712V207.622H663.752V181.199Z" fill="#3498FF"/>
<path d="M398.613 303H430.146L468.759 181.199H443.017L414.058 270.133L386.385 181.199H360L398.613 303Z" fill="#3498FF"/>
<path d="M465.541 32.4654H537.618V56.9547H489.996V79.5103H531.826V103.355H489.996V127.844H537.618V154.266H465.541V32.4654Z" fill="#3498FF"/>
<path d="M360 124.621L383.168 115.599C385.742 120.325 393.979 129.777 406.335 129.777C418.691 129.777 423.925 122.583 424.998 118.987V116.888C424.998 113.666 419.978 106.963 402.474 103.355C389.818 101.421 364.505 91.3679 364.505 66.6211C364.505 41.8744 387.243 33.5395 398.613 32.4654C409.553 30.7469 434.265 32.8521 445.591 55.0211L423.067 65.3325C421.566 61.4658 415.216 53.9902 401.83 55.0213C388.445 56.0525 388.959 66.6214 388.959 67.2658C388.959 67.9103 388.316 76.2881 421.78 83.377C431.004 85.9546 449.453 96.0077 449.453 115.599C449.453 135.19 436.582 146.533 430.146 149.755C426.714 151.259 417.147 154.266 406.335 154.266C392.821 154.266 369.01 149.11 360 124.621Z" fill="#3498FF"/>
<path d="M638.654 111.733L661.178 123.333C655.327 133.644 636.435 154.266 607.675 154.266C571.726 154.266 549.202 124.622 549.202 92.3993C549.202 60.1769 570.904 32.4654 607.675 32.4654C637.092 32.4654 655.601 51.799 661.178 61.4658L638.654 72.4214C636.021 67.2658 626.138 56.9547 607.675 56.9547C584.597 56.9547 574.3 71.777 574.3 92.3993C574.3 113.022 585.062 129.777 607.675 129.777C625.766 129.777 635.866 117.747 638.654 111.733Z" fill="#3498FF"/>
<path d="M674.693 32.4654H699.147V113.666C699.362 118.822 703.91 129.133 720.384 129.133C736.859 129.133 742.265 118.822 742.908 113.666V32.4654H767.363V113.666C766.29 127.199 755.393 154.266 720.384 154.266C685.375 154.266 675.336 127.199 674.693 113.666V32.4654Z" fill="#3498FF"/>
<path fill-rule="evenodd" clip-rule="evenodd" d="M786.669 154.266V32.4654H834.291C847.162 32.4653 872.904 40.1986 872.904 71.1322C872.904 102.066 858.317 109.37 851.023 109.155L878.696 154.266H849.736L823.351 111.733H811.767V154.266H786.669ZM811.767 56.3102V86.5992H838.153C841.799 86.5992 849.093 83.5058 849.093 71.1322C849.093 58.7586 839.225 56.0952 834.291 56.3102H811.767Z" fill="#3498FF"/>
<path d="M890.923 32.4657H963V56.955H915.378V79.5106H957.208V103.355H915.378V127.844H963V154.266H890.923V32.4657Z" fill="#3498FF"/>
<path d="M430.146 303H398.613L360 181.199H386.385L414.058 270.133L443.017 181.199H468.759M430.146 303C445.225 255.434 453.68 228.765 468.759 181.199M430.146 303L468.759 181.199M360 124.621L383.168 115.599C385.742 120.325 393.979 129.777 406.335 129.777C418.691 129.777 423.925 122.583 424.998 118.987V116.888C424.998 113.666 419.978 106.963 402.474 103.355C389.818 101.421 364.505 91.3679 364.505 66.6211C364.505 41.8744 387.243 33.5395 398.613 32.4654C409.553 30.7469 434.265 32.8521 445.591 55.0211L423.067 65.3325C421.566 61.4658 415.216 53.9902 401.83 55.0213C388.445 56.0525 388.959 66.6214 388.959 67.2658C388.959 67.9103 388.316 76.2881 421.78 83.377C431.004 85.9546 449.453 96.0077 449.453 115.599C449.453 135.19 436.582 146.533 430.146 149.755C426.714 151.259 417.147 154.266 406.335 154.266C392.821 154.266 369.01 149.11 360 124.621ZM465.541 32.4654H537.618V56.9547H489.996V79.5103H531.826V103.355H489.996V127.844H537.618V154.266H465.541V32.4654ZM638.654 111.733L661.178 123.333C655.327 133.644 636.435 154.266 607.675 154.266C571.726 154.266 549.202 124.622 549.202 92.3993C549.202 60.1769 570.904 32.4654 607.675 32.4654C637.092 32.4654 655.601 51.799 661.178 61.4658L638.654 72.4214C636.021 67.2658 626.138 56.9547 607.675 56.9547C584.597 56.9547 574.3 71.777 574.3 92.3993C574.3 113.022 585.062 129.777 607.675 129.777C625.766 129.777 635.866 117.747 638.654 111.733ZM674.693 32.4654H699.147V113.666C699.362 118.822 703.91 129.133 720.384 129.133C736.859 129.133 742.265 118.822 742.908 113.666V32.4654H767.363V113.666C766.29 127.199 755.393 154.266 720.384 154.266C685.375 154.266 675.336 127.199 674.693 113.666V32.4654ZM786.669 154.266V32.4654H834.291C847.162 32.4653 872.904 40.1986 872.904 71.1322C872.904 102.066 858.317 109.37 851.023 109.155L878.696 154.266H849.736L823.351 111.733H811.767V154.266H786.669ZM811.767 86.5992V56.3102H834.291C839.225 56.0952 849.093 58.7586 849.093 71.1322C849.093 83.5058 841.799 86.5992 838.153 86.5992H811.767ZM519.599 273.355L542.766 264.333C545.34 269.059 553.578 278.511 565.934 278.511C578.29 278.511 583.524 271.317 584.597 267.721V265.622C584.597 262.4 579.577 255.697 562.073 252.088C549.416 250.155 524.104 240.102 524.104 215.355C524.104 190.608 546.842 182.273 558.211 181.199C569.152 179.481 593.864 181.586 605.19 203.755L582.666 214.066C581.164 210.2 574.815 202.724 561.429 203.755C548.043 204.786 548.558 215.355 548.558 216C548.558 216.644 547.915 225.022 581.379 232.111C590.603 234.688 609.051 244.742 609.051 264.333C609.051 283.924 596.18 295.267 589.745 298.489C586.313 299.993 576.745 303 565.934 303C552.419 303 528.608 297.844 519.599 273.355ZM624.496 181.199H650.882V303H624.496V181.199ZM663.752 181.199H748.7V207.622H717.81V303H692.712V207.622H663.752V181.199ZM480.986 181.199H507.371V303H480.986V181.199ZM890.923 32.4657H963V56.955H915.378V79.5106H957.208V103.355H915.378V127.844H963V154.266H890.923V32.4657Z" stroke="#3498FF"/>
<path d="M179 4.02548V23.0255C179 24.5255 179.9 27.5255 183.5 27.5255C188 27.5255 280.5 36.0258 301 151.526C301.167 152.584 302.5 154.701 306.5 154.701H322.5C324.333 154.643 328 153.926 328 151.526C328 148.526 318.5 17.0256 183.5 0.0256305C182 -0.141128 179 0.425368 179 4.02548Z" fill="#3498FF"/>
<path d="M179 330.701V311.701C179 310.201 179.9 307.201 183.5 307.201C188 307.201 280.5 298.701 301 183.201C301.167 182.143 302.5 180.026 306.5 180.026H322.5C324.333 180.084 328 180.801 328 183.201C328 186.201 318.5 317.701 183.5 334.701C182 334.868 179 334.302 179 330.701Z" fill="#3498FF"/>
<path fill-rule="evenodd" clip-rule="evenodd" d="M81 148.701C81 146.035 82.6 140.701 89 140.701H239C241.667 140.701 247 142.301 247 148.701V189.201C246.667 218.701 229.5 277.701 163.5 277.701C97.5 277.701 81 218.701 81 189.201V148.701ZM139.5 195.701C139.5 176.101 155.5 171.535 163.5 171.701C177 171.701 189 180.701 189 195.701C189 207.701 180.667 214.035 176.5 215.701V245.701C176.5 248.501 174.167 249.201 173 249.201H153.5C150.7 249.201 150 246.868 150 245.701V215.701C141.2 209.301 139.333 199.701 139.5 195.701Z" fill="#3498FF"/>
<path d="M91 127.201H117C118.833 112.035 131 81.7012 165 81.7012C199 81.7012 209.5 112.035 210.5 127.201H237C236.333 103.701 221 56.7012 165 56.7012C109 56.7012 92.3333 103.701 91 127.201Z" fill="#3498FF"/>
<path d="M149 4.02548V23.0255C149 24.5255 148.1 27.5255 144.5 27.5255C140 27.5255 47.5 36.0258 27 151.526C26.8333 152.584 25.5 154.701 21.5 154.701H5.5C3.66667 154.643 0 153.926 0 151.526C0 148.526 9.5 17.0256 144.5 0.0256305C146 -0.141133 149 0.425365 149 4.02548Z" fill="#3498FF"/>
<path d="M149 330.701V311.701C149 310.201 148.1 307.201 144.5 307.201C140 307.201 47.5 298.701 27 183.201C26.8334 182.143 25.5 180.026 21.5 180.026H5.50005C3.66672 180.084 4.91142e-05 180.801 4.91142e-05 183.201C4.91142e-05 186.201 9.50005 317.701 144.5 334.701C146 334.868 149 334.302 149 330.701Z" fill="#3498FF"/>
</svg>
